<?xml version="1.0" encoding="utf-8"?>
<!-- Generator: Adobe Illustrator 26.1.0, SVG Export Plug-In . SVG Version: 6.00 Build 0)  -->
<svg version="1.1" id="Layer_1" xmlns="http://www.w3.org/2000/svg" xmlns:xlink="http://www.w3.org/1999/xlink" x="0px" y="0px"
	 viewBox="0 0 379 228" style="enable-background:new 0 0 379 228;" xml:space="preserve">
<style type="text/css">
	.st0{stroke:#000000;stroke-miterlimit:10;}
	.st1{fill:#F15A29;}
</style>
<g>
	<g>
		<g>
			<path class="st0" d="M316.5,208.68c-1.84,0-2.88-0.75-3.1-2.26h0.83c0.26,1.01,1.07,1.52,2.43,1.52h0.54
				c1.15,0,1.97-0.35,2.47-1.05c0.23-0.32,0.34-0.67,0.34-1.05c0-0.71-0.49-1.19-1.46-1.41l-2.19-0.52
				c-1.27-0.3-1.91-0.99-1.91-2.07c0-0.54,0.14-1.02,0.42-1.43c0.59-0.87,1.57-1.3,2.92-1.3h0.46c1.81,0,2.84,0.73,3.08,2.18h-0.85
				c-0.25-0.91-1-1.36-2.27-1.36h-0.45c-0.69,0-1.24,0.12-1.65,0.36c-0.57,0.33-0.86,0.82-0.86,1.47c0,0.7,0.47,1.16,1.41,1.38
				l2.13,0.51c1.34,0.32,2.01,1.04,2.01,2.15c0,0.55-0.15,1.04-0.46,1.48c-0.67,0.95-1.7,1.42-3.08,1.42H316.5z"/>
			<path class="st0" d="M325.02,199.83h-1.48l0.11-0.74h1.48l0.43-3.07h0.76l-0.43,3.07h1.96l-0.1,0.74h-1.97l-0.9,6.57
				c-0.02,0.12-0.03,0.24-0.03,0.34c0,0.32,0.08,0.57,0.25,0.74c0.19,0.2,0.51,0.3,0.95,0.3h0.61l-0.11,0.74h-0.83
				c-0.57,0-1-0.19-1.29-0.56c-0.22-0.29-0.33-0.67-0.33-1.15c0-0.15,0.01-0.3,0.04-0.46L325.02,199.83z"/>
			<path class="st0" d="M329.35,211.5l0.1-0.74h0.11c0.42,0,0.73-0.06,0.92-0.18c0.26-0.16,0.51-0.48,0.76-0.96l0.73-1.38
				l-2.34-9.16h0.88l2.03,8.09l4.33-8.09h0.85l-5.81,10.86c-0.36,0.68-0.71,1.12-1.05,1.32c-0.28,0.15-0.7,0.23-1.27,0.23H329.35z"
				/>
			<path class="st0" d="M340.53,195.28h0.76l-1.85,13.24h-0.76L340.53,195.28z"/>
			<path class="st0" d="M350.49,206.05c-0.45,0.9-0.99,1.55-1.63,1.97c-0.66,0.44-1.47,0.66-2.44,0.66c-1.26,0-2.22-0.47-2.88-1.41
				c-0.49-0.7-0.73-1.54-0.73-2.53c0-0.26,0.02-0.53,0.05-0.8l0.06-0.45c0.18-1.29,0.65-2.34,1.43-3.14
				c0.81-0.83,1.85-1.25,3.12-1.25c1.24,0,2.18,0.45,2.85,1.35c0.5,0.69,0.75,1.51,0.75,2.46c0,0.23-0.01,0.47-0.04,0.71l-0.04,0.36
				h-7.31l-0.04,0.27c-0.04,0.21-0.05,0.42-0.05,0.64c0,0.8,0.2,1.46,0.6,1.98c0.54,0.7,1.34,1.05,2.41,1.05
				c0.73,0,1.34-0.15,1.83-0.47c0.47-0.29,0.87-0.76,1.2-1.41H350.49z M350.27,203.25c0.03-0.19,0.04-0.37,0.04-0.55
				c0-0.7-0.21-1.31-0.63-1.83c-0.56-0.68-1.32-1.02-2.28-1.02c-0.95,0-1.75,0.32-2.39,0.95c-0.65,0.64-1.05,1.45-1.2,2.45H350.27z"
				/>
		</g>
		<g>
			<path d="M26.34,182.99l0.76-2.57c0.24-0.82,0.8-1.36,1.43-1.36h5.3c0.95,0,1.68,1.22,1.53,2.57c-0.11,0.92-0.06,1.67,0.13,2.25
				c0.32,1.01,1.6,1.52,3.85,1.52h4.72c2.02,0,3.54-0.54,4.57-1.62c1.03-1.08,1.83-2.65,2.41-4.72l6.49-23.12
				c0.24-0.84,0.8-1.39,1.44-1.39h5.13c1.1,0,1.85,1.59,1.43,3.04l-7.17,25.39c-0.55,1.93-1.19,3.61-1.92,5.06
				c-0.74,1.45-1.63,2.64-2.67,3.58c-1.04,0.94-2.26,1.65-3.66,2.13c-1.4,0.48-3.02,0.72-4.88,0.72H32.89
				c-3.72,0-6.01-0.99-6.88-2.96C25.2,189.61,25.32,186.76,26.34,182.99z"/>
			<path d="M94.04,182.99c-0.99,3.67-2.49,6.52-4.47,8.54c-1.89,1.97-4.73,2.96-8.52,2.96H68.73c-3.27,0-5.48-0.88-6.64-2.65
				c-1.15-1.77-1.17-4.72-0.05-8.85l4.81-16.94c1.09-3.86,2.68-6.71,4.76-8.57c2.08-1.86,4.88-2.83,8.37-2.93H92.3
				c3.78,0,6.08,0.99,6.88,2.96c0.83,2.02,0.72,4.87-0.34,8.54L94.04,182.99z M86.72,179.14l2.6-9.16c0.58-2.2,0.71-3.81,0.38-4.82
				c-0.32-1.01-1.6-1.51-3.85-1.51h-4.72c-2.02,0-3.54,0.54-4.55,1.62c-1.01,1.08-1.8,2.65-2.38,4.72l-2.55,9.09
				c-0.61,2.07-0.71,3.64-0.31,4.72c0.4,1.08,1.61,1.62,3.63,1.62h4.71c2.21,0,3.77-0.5,4.67-1.52
				C85.33,182.79,86.11,181.2,86.72,179.14z"/>
			<path d="M132.52,178.93h-1.36c-0.63,0-1.2,0.55-1.44,1.39l-3.6,12.79c-0.24,0.84-0.8,1.39-1.44,1.39h-5.08
				c-1.1,0-1.85-1.59-1.43-3.04l7.17-25.39c0.55-1.93,1.19-3.62,1.92-5.06c0.74-1.45,1.63-2.64,2.67-3.58
				c1.04-0.94,2.26-1.65,3.66-2.13c1.4-0.48,3.02-0.72,4.88-0.72h19.79c1.1,0,1.84,1.58,1.44,3.04l-1.31,4.66
				c-0.24,0.84-0.8,1.39-1.44,1.39h-17.33c-2.02,0-3.54,0.55-4.57,1.65c-0.22,0.24-0.43,0.49-0.63,0.77
				c-0.99,1.37-0.28,3.78,1.1,3.78h18.44c1.1,0,1.85,1.6,1.43,3.05l-1.33,4.66c-0.24,0.83-0.8,1.38-1.43,1.38H132.52z"/>
			<path d="M160.39,194.49h-5.03c-1.1,0-1.85-1.59-1.43-3.04l10.01-35.51c0.24-0.84,0.8-1.39,1.43-1.39h5.03
				c1.1,0,1.85,1.59,1.43,3.04l-10.01,35.51C161.59,193.95,161.03,194.49,160.39,194.49z"/>
			<path d="M174.75,160.61l1.31-4.66c0.24-0.84,0.8-1.39,1.44-1.39h28.61c1.1,0,1.84,1.58,1.44,3.04l-1.31,4.66
				c-0.24,0.84-0.8,1.39-1.44,1.39h-9.94c-0.63,0-1.2,0.55-1.43,1.38l-7.93,28.08c-0.24,0.84-0.8,1.38-1.43,1.38h-5.03
				c-1.1,0-1.85-1.59-1.43-3.04l6.99-24.76c0.41-1.46-0.34-3.04-1.43-3.04h-6.96C175.09,163.65,174.34,162.06,174.75,160.61z"/>
			<path d="M240.87,166.06l-7.64,27.05c-0.24,0.84-0.8,1.38-1.43,1.38h-5.08c-1.1,0-1.85-1.59-1.43-3.05l6.07-21.47
				c0.58-2.2,0.71-3.81,0.38-4.82c-0.32-1.01-1.6-1.51-3.85-1.51h-4.72c-2.02,0-3.54,0.54-4.55,1.62c-1.01,1.08-1.8,2.65-2.38,4.72
				l-6.54,23.13c-0.24,0.84-0.8,1.38-1.43,1.38h-5.13c-1.1,0-1.85-1.59-1.43-3.04l7.17-25.39c1.03-3.63,2.69-6.45,5-8.47
				c2.31-2.02,5.02-3.03,8.13-3.03h12.32c3.78,0,6.08,0.99,6.88,2.96C242.04,159.54,241.93,162.38,240.87,166.06z"/>
			<path d="M251.74,178.93h-1.28c-0.72,0-1.35,0.72-1.51,1.72c-0.21,1.29-0.17,2.32,0.12,3.1c0.4,1.1,1.61,1.65,3.63,1.65h16.09
				c1.1,0,1.84,1.58,1.44,3.04l-1.31,4.66c-0.24,0.84-0.8,1.39-1.44,1.39h-21.04c-1.86,0-3.36-0.24-4.5-0.72
				c-1.14-0.48-1.96-1.19-2.45-2.13c-0.5-0.94-0.71-2.13-0.65-3.58c0.06-1.45,0.37-3.13,0.91-5.06l4.81-16.94
				c0.55-1.93,1.19-3.62,1.92-5.06c0.74-1.45,1.63-2.64,2.67-3.58c1.04-0.94,2.26-1.65,3.66-2.13c1.4-0.48,3.02-0.72,4.88-0.72
				h19.79c1.1,0,1.84,1.58,1.44,3.04l-1.31,4.66c-0.24,0.84-0.8,1.39-1.44,1.39h-17.33c-2.02,0-3.54,0.55-4.57,1.65
				c-0.22,0.24-0.43,0.49-0.63,0.77c-0.99,1.37-0.28,3.78,1.1,3.78h18.44c1.1,0,1.85,1.6,1.43,3.05l-1.33,4.66
				c-0.24,0.83-0.8,1.38-1.43,1.38H251.74z"/>
			<path d="M307.88,187.01c-0.03,0.08-0.06,0.15-0.09,0.22c-0.77,1.71-1.93,3.34-3.46,4.92c-1.57,1.56-3.37,2.34-5.39,2.34h-24.37
				c-1.1,0-1.84-1.58-1.44-3.04l1.31-4.66c0.24-0.84,0.8-1.39,1.44-1.39h21.04c0.67,0,1.04-0.32,1.11-0.96
				c0.06-0.69,0-1.08-0.19-1.17l-16.07-9.98c-2.02-1.15-2.52-3.49-1.49-7.02c0.22-0.83,0.42-1.51,0.6-2.07
				c0.15-0.47,0.29-0.85,0.43-1.15c0.05-0.11,0.11-0.2,0.17-0.29c0.23-0.34,0.46-0.73,0.7-1.17c0.27-0.5,0.54-1.06,0.79-1.65
				c0.58-1.28,1.88-2.5,3.9-3.65c1.99-1.15,4.19-1.72,6.59-1.72h21.28c1.1,0,1.85,1.59,1.43,3.04l-1.39,4.94
				c-0.24,0.84-0.8,1.38-1.43,1.38h-22.53c-0.41,0-0.75,0.27-1.02,0.8c-0.15,0.29-0.24,0.64-0.26,1c-0.01,0.18,0.02,0.27,0.07,0.27
				l17.75,11.29c1.15,0.73,1.67,2.16,1.54,4.27C308.81,183.61,308.47,185.43,307.88,187.01z"/>
			<path d="M345.12,187.01c-0.03,0.08-0.06,0.15-0.09,0.22c-0.77,1.71-1.93,3.34-3.46,4.92c-1.57,1.56-3.37,2.34-5.39,2.34h-24.37
				c-1.1,0-1.84-1.58-1.44-3.04l1.31-4.66c0.24-0.84,0.8-1.39,1.44-1.39h21.04c0.67,0,1.04-0.32,1.11-0.96
				c0.06-0.69,0-1.08-0.19-1.17L319,173.29c-2.02-1.15-2.52-3.49-1.49-7.02c0.22-0.83,0.42-1.51,0.6-2.07
				c0.15-0.47,0.29-0.85,0.43-1.15c0.05-0.11,0.11-0.2,0.17-0.29c0.23-0.34,0.46-0.73,0.7-1.17c0.27-0.5,0.54-1.06,0.79-1.65
				c0.58-1.28,1.88-2.5,3.9-3.65c1.99-1.15,4.19-1.72,6.59-1.72h21.28c1.1,0,1.85,1.59,1.43,3.04l-1.39,4.94
				c-0.24,0.84-0.8,1.38-1.43,1.38h-22.53c-0.41,0-0.75,0.27-1.02,0.8c-0.15,0.29-0.24,0.64-0.26,1c-0.01,0.18,0.02,0.27,0.07,0.27
				l17.75,11.29c1.15,0.73,1.67,2.16,1.54,4.27C346.04,183.61,345.7,185.43,345.12,187.01z"/>
		</g>
	</g>
	<g>
		<path class="st1" d="M205.44,136.02L205.44,136.02l15.7-0.01c0.05,0,0.12,0,0.19,0l0.04,0l0,0c0.03,0,0.06,0,0.09,0l0,0
			c0.2,0,2.16-0.01,17.27-0.03l12.16,0.04l-0.03-16.54c0.02-8.1,0.02-10,0.05-12.13l0.02-6.23c0.01-2.29,0.01-4.57,0.01-6.86l0-3.69
			l0,0l0-0.82l-24.19,0l0,0.27l0,0l-0.03,4.21c-0.02,2.17-0.02,4.35-0.03,6.54c-0.01,2.17-0.01,4.34-0.03,6.54l-0.01,4.47
			c-1.46,0-3.45,0-6.22-0.01l-14.98,0.04l0-0.04l-0.82,0.01l0,24.25L205.44,136.02z"/>
		<path d="M190.98,136.02l1.76,0l0-24.22l-1.68,0c-4.66-0.03-9.36-0.96-13.56-2.68c-4.3-1.81-8.16-4.42-11.48-7.74
			c-6.7-6.7-10.39-15.62-10.39-25.1c0-9.48,3.69-18.4,10.4-25.11c6.71-6.71,15.63-10.4,25.11-10.4c9.48,0,18.4,3.69,25.1,10.39
			c3.35,3.35,5.92,7.16,7.66,11.35c1.79,4.22,2.71,8.73,2.73,13.43c0.01,0.64,0.01,1.3,0.02,1.94h24.24
			c-0.01-0.74-0.01-1.46-0.01-2.2c-0.09-7.78-1.66-15.38-4.67-22.57c-2.99-7.17-7.29-13.61-12.8-19.11
			c-11.26-11.26-26.27-17.48-42.26-17.51c-15.96,0-30.97,6.22-42.27,17.52c-11.29,11.29-17.51,26.3-17.52,42.27
			c0,15.96,6.21,30.97,17.51,42.26c5.55,5.55,12.05,9.89,19.32,12.88C175.44,134.44,183.11,135.99,190.98,136.02z"/>
	</g>
</g>
</svg>
